<svg xmlns="http://www.w3.org/2000/svg" viewBox="0 0 100 100" width="100%" height="100%">
  <circle cx="25" cy="20" r="14" fill="none" stroke="#3ac1cb" stroke-width="3.5" />
  <path d="M 17 21 L 23 27 L 33 15" fill="none" stroke="#3ac1cb" stroke-width="3.5" stroke-linecap="round" stroke-linejoin="round" />

  <circle cx="75" cy="20" r="14" fill="none" stroke="#3ac1cb" stroke-width="3.5" />
  <path d="M 67 12 L 83 28 M 83 12 L 67 28" fill="none" stroke="#3ac1cb" stroke-width="3.5" stroke-linecap="round" stroke-linejoin="round" />

  <path d="M 25 34 V 45 H 75 V 34 M 50 45 V 57.5" fill="none" stroke="#000000" stroke-width="4" stroke-linecap="round" stroke-linejoin="round" />

  <g transform="translate(29, 54) scale(1.75)" fill="none" stroke="#000000" stroke-width="2.2" stroke-linecap="round" stroke-linejoin="round">
    <path d="M12.22 2h-.44a2 2 0 0 0-2 2v.18a2 2 0 0 1-1 1.73l-.43.25a2 2 0 0 1-2 0l-.15-.08a2 2 0 0 0-2.73.73l-.22.38a2 2 0 0 0 .73 2.73l.15.1a2 2 0 0 1 1 1.72v.51a2 2 0 0 1-1 1.74l-.15.09a2 2 0 0 0-.73 2.73l.22.38a2 2 0 0 0 2.73.73l.15-.08a2 2 0 0 1 2 0l.43.25a2 2 0 0 1 1 1.73V20a2 2 0 0 0 2 2h.44a2 2 0 0 0 2-2v-.18a2 2 0 0 1 1-1.73l.43-.25a2 2 0 0 1 2 0l.15.08a2 2 0 0 0 2.73-.73l.22-.39a2 2 0 0 0-.73-2.73l-.15-.08a2 2 0 0 1-1-1.74v-.5a2 2 0 0 1 1-1.74l.15-.09a2 2 0 0 0 .73-2.73l-.22-.38a2 2 0 0 0-2.73-.73l-.15.08a2 2 0 0 1-2 0l-.43-.25a2 2 0 0 1-1-1.73V4a2 2 0 0 0-2-2z" />
    <circle cx="12" cy="12" r="3" />
  </g>
</svg>
